<svg width="24" height="28" viewBox="0 0 24 28" fill="none" xmlns="http://www.w3.org/2000/svg">
<path d="M8 12.666C8 13.7269 8.42143 14.7443 9.17157 15.4944C9.92172 16.2446 10.9391 16.666 12 16.666C13.0609 16.666 14.0783 16.2446 14.8284 15.4944C15.5786 14.7443 16 13.7269 16 12.666C16 11.6051 15.5786 10.5877 14.8284 9.83759C14.0783 9.08744 13.0609 8.66602 12 8.66602C10.9391 8.66602 9.92172 9.08744 9.17157 9.83759C8.42143 10.5877 8 11.6051 8 12.666Z" stroke="#2A1DF4" stroke-width="2.5" stroke-linecap="round" stroke-linejoin="round"/>
<path d="M19.5427 20.2089L13.8854 25.8663C13.3854 26.3658 12.7075 26.6464 12.0007 26.6464C11.2939 26.6464 10.6161 26.3658 10.116 25.8663L4.45738 20.2089C2.96567 18.7172 1.94983 16.8165 1.5383 14.7474C1.12676 12.6783 1.33803 10.5336 2.14538 8.58458C2.95273 6.63554 4.31991 4.96966 6.07402 3.79762C7.82813 2.62558 9.8904 2 12 2C14.1097 2 16.172 2.62558 17.9261 3.79762C19.6802 4.96966 21.0474 6.63554 21.8547 8.58458C22.6621 10.5336 22.8733 12.6783 22.4618 14.7474C22.0503 16.8165 21.0344 18.7172 19.5427 20.2089Z" stroke="#2A1DF4" stroke-width="2.5" stroke-linecap="round" stroke-linejoin="round"/>
</svg>
