<svg width="13" height="13" viewBox="0 0 13 13" fill="none" xmlns="http://www.w3.org/2000/svg">
<path d="M3.0625 3.6875C3.0625 3.85326 3.12835 4.01223 3.24556 4.12944C3.36277 4.24665 3.52174 4.3125 3.6875 4.3125C3.85326 4.3125 4.01223 4.24665 4.12944 4.12944C4.24665 4.01223 4.3125 3.85326 4.3125 3.6875C4.3125 3.52174 4.24665 3.36277 4.12944 3.24556C4.01223 3.12835 3.85326 3.0625 3.6875 3.0625C3.52174 3.0625 3.36277 3.12835 3.24556 3.24556C3.12835 3.36277 3.0625 3.52174 3.0625 3.6875Z" stroke="#04D698" stroke-width="1.5" stroke-linecap="round" stroke-linejoin="round"/>
<path d="M0.875 2.75V5.9825C0.875071 6.31399 1.00681 6.63188 1.24125 6.86625L6.06 11.685C6.34247 11.9674 6.72556 12.1261 7.125 12.1261C7.52444 12.1261 7.90753 11.9674 8.19 11.685L11.685 8.19C11.9674 7.90753 12.1261 7.52444 12.1261 7.125C12.1261 6.72556 11.9674 6.34247 11.685 6.06L6.86625 1.24125C6.63188 1.00681 6.31399 0.875071 5.9825 0.875H2.75C2.25272 0.875 1.77581 1.07254 1.42417 1.42417C1.07254 1.77581 0.875 2.25272 0.875 2.75Z" stroke="#04D698" stroke-width="1.5" stroke-linecap="round" stroke-linejoin="round"/>
</svg>
